name C:\Users\u0101727\Documents\MyRepositories\upper-imu-dc\OpenSim\subject0\MA\ResultsMA\grid_4nodes_9dim\angles_25.mot
datacolumns 10
datarows 56
range 2550.01000000 2550.56000000
endheader 
time	clav_prot	clav_elev	scapula_abduction	scapula_elevation	scapula_upward_rot	scapula_winging	plane_elv	shoulder_elv	axial_rot	
       2550.01000000	        -50.00000000	         10.00000000	        -21.66666667	        -10.00000000	          0.00000000	        -10.00000000	         30.00000000	        100.00000000	         90.00000000	
       2550.02000000	        -38.33333333	         10.00000000	        -21.66666667	        -10.00000000	          0.00000000	        -10.00000000	         30.00000000	        100.00000000	         90.00000000	
       2550.03000000	        -26.66666667	         10.00000000	        -21.66666667	        -10.00000000	          0.00000000	        -10.00000000	         30.00000000	        100.00000000	         90.00000000	
       2550.04000000	        -15.00000000	         10.00000000	        -21.66666667	        -10.00000000	          0.00000000	        -10.00000000	         30.00000000	        100.00000000	         90.00000000	
       2550.05000000	        -50.00000000	         20.00000000	        -21.66666667	        -10.00000000	          0.00000000	        -10.00000000	         30.00000000	        100.00000000	         90.00000000	
       2550.06000000	        -38.33333333	         20.00000000	        -21.66666667	        -10.00000000	          0.00000000	        -10.00000000	         30.00000000	        100.00000000	         90.00000000	
       2550.07000000	        -26.66666667	         20.00000000	        -21.66666667	        -10.00000000	          0.00000000	        -10.00000000	         30.00000000	        100.00000000	         90.00000000	
       2550.08000000	        -15.00000000	         20.00000000	        -21.66666667	        -10.00000000	          0.00000000	        -10.00000000	         30.00000000	        100.00000000	         90.00000000	
       2550.09000000	        -50.00000000	        -10.00000000	         -3.33333333	        -10.00000000	          0.00000000	        -10.00000000	         30.00000000	        100.00000000	         90.00000000	
       2550.10000000	        -38.33333333	        -10.00000000	         -3.33333333	        -10.00000000	          0.00000000	        -10.00000000	         30.00000000	        100.00000000	         90.00000000	
       2550.11000000	        -26.66666667	        -10.00000000	         -3.33333333	        -10.00000000	          0.00000000	        -10.00000000	         30.00000000	        100.00000000	         90.00000000	
       2550.12000000	        -15.00000000	        -10.00000000	         -3.33333333	        -10.00000000	          0.00000000	        -10.00000000	         30.00000000	        100.00000000	         90.00000000	
       2550.13000000	        -50.00000000	          0.00000000	         -3.33333333	        -10.00000000	          0.00000000	        -10.00000000	         30.00000000	        100.00000000	         90.00000000	
       2550.14000000	        -38.33333333	          0.00000000	         -3.33333333	        -10.00000000	          0.00000000	        -10.00000000	         30.00000000	        100.00000000	         90.00000000	
       2550.15000000	        -26.66666667	          0.00000000	         -3.33333333	        -10.00000000	          0.00000000	        -10.00000000	         30.00000000	        100.00000000	         90.00000000	
       2550.16000000	        -15.00000000	          0.00000000	         -3.33333333	        -10.00000000	          0.00000000	        -10.00000000	         30.00000000	        100.00000000	         90.00000000	
       2550.17000000	        -50.00000000	         10.00000000	         -3.33333333	        -10.00000000	          0.00000000	        -10.00000000	         30.00000000	        100.00000000	         90.00000000	
       2550.18000000	        -38.33333333	         10.00000000	         -3.33333333	        -10.00000000	          0.00000000	        -10.00000000	         30.00000000	        100.00000000	         90.00000000	
       2550.19000000	        -26.66666667	         10.00000000	         -3.33333333	        -10.00000000	          0.00000000	        -10.00000000	         30.00000000	        100.00000000	         90.00000000	
       2550.20000000	        -15.00000000	         10.00000000	         -3.33333333	        -10.00000000	          0.00000000	        -10.00000000	         30.00000000	        100.00000000	         90.00000000	
       2550.21000000	        -50.00000000	         20.00000000	         -3.33333333	        -10.00000000	          0.00000000	        -10.00000000	         30.00000000	        100.00000000	         90.00000000	
       2550.22000000	        -38.33333333	         20.00000000	         -3.33333333	        -10.00000000	          0.00000000	        -10.00000000	         30.00000000	        100.00000000	         90.00000000	
       2550.23000000	        -26.66666667	         20.00000000	         -3.33333333	        -10.00000000	          0.00000000	        -10.00000000	         30.00000000	        100.00000000	         90.00000000	
       2550.24000000	        -15.00000000	         20.00000000	         -3.33333333	        -10.00000000	          0.00000000	        -10.00000000	         30.00000000	        100.00000000	         90.00000000	
       2550.25000000	        -50.00000000	        -10.00000000	         15.00000000	        -10.00000000	          0.00000000	        -10.00000000	         30.00000000	        100.00000000	         90.00000000	
       2550.26000000	        -38.33333333	        -10.00000000	         15.00000000	        -10.00000000	          0.00000000	        -10.00000000	         30.00000000	        100.00000000	         90.00000000	
       2550.27000000	        -26.66666667	        -10.00000000	         15.00000000	        -10.00000000	          0.00000000	        -10.00000000	         30.00000000	        100.00000000	         90.00000000	
       2550.28000000	        -15.00000000	        -10.00000000	         15.00000000	        -10.00000000	          0.00000000	        -10.00000000	         30.00000000	        100.00000000	         90.00000000	
       2550.29000000	        -50.00000000	          0.00000000	         15.00000000	        -10.00000000	          0.00000000	        -10.00000000	         30.00000000	        100.00000000	         90.00000000	
       2550.30000000	        -38.33333333	          0.00000000	         15.00000000	        -10.00000000	          0.00000000	        -10.00000000	         30.00000000	        100.00000000	         90.00000000	
       2550.31000000	        -26.66666667	          0.00000000	         15.00000000	        -10.00000000	          0.00000000	        -10.00000000	         30.00000000	        100.00000000	         90.00000000	
       2550.32000000	        -15.00000000	          0.00000000	         15.00000000	        -10.00000000	          0.00000000	        -10.00000000	         30.00000000	        100.00000000	         90.00000000	
       2550.33000000	        -50.00000000	         10.00000000	         15.00000000	        -10.00000000	          0.00000000	        -10.00000000	         30.00000000	        100.00000000	         90.00000000	
       2550.34000000	        -38.33333333	         10.00000000	         15.00000000	        -10.00000000	          0.00000000	        -10.00000000	         30.00000000	        100.00000000	         90.00000000	
       2550.35000000	        -26.66666667	         10.00000000	         15.00000000	        -10.00000000	          0.00000000	        -10.00000000	         30.00000000	        100.00000000	         90.00000000	
       2550.36000000	        -15.00000000	         10.00000000	         15.00000000	        -10.00000000	          0.00000000	        -10.00000000	         30.00000000	        100.00000000	         90.00000000	
       2550.37000000	        -50.00000000	         20.00000000	         15.00000000	        -10.00000000	          0.00000000	        -10.00000000	         30.00000000	        100.00000000	         90.00000000	
       2550.38000000	        -38.33333333	         20.00000000	         15.00000000	        -10.00000000	          0.00000000	        -10.00000000	         30.00000000	        100.00000000	         90.00000000	
       2550.39000000	        -26.66666667	         20.00000000	         15.00000000	        -10.00000000	          0.00000000	        -10.00000000	         30.00000000	        100.00000000	         90.00000000	
       2550.40000000	        -15.00000000	         20.00000000	         15.00000000	        -10.00000000	          0.00000000	        -10.00000000	         30.00000000	        100.00000000	         90.00000000	
       2550.41000000	        -50.00000000	        -10.00000000	        -40.00000000	         -3.33333333	          0.00000000	        -10.00000000	         30.00000000	        100.00000000	         90.00000000	
       2550.42000000	        -38.33333333	        -10.00000000	        -40.00000000	         -3.33333333	          0.00000000	        -10.00000000	         30.00000000	        100.00000000	         90.00000000	
       2550.43000000	        -26.66666667	        -10.00000000	        -40.00000000	         -3.33333333	          0.00000000	        -10.00000000	         30.00000000	        100.00000000	         90.00000000	
       2550.44000000	        -15.00000000	        -10.00000000	        -40.00000000	         -3.33333333	          0.00000000	        -10.00000000	         30.00000000	        100.00000000	         90.00000000	
       2550.45000000	        -50.00000000	          0.00000000	        -40.00000000	         -3.33333333	          0.00000000	        -10.00000000	         30.00000000	        100.00000000	         90.00000000	
       2550.46000000	        -38.33333333	          0.00000000	        -40.00000000	         -3.33333333	          0.00000000	        -10.00000000	         30.00000000	        100.00000000	         90.00000000	
       2550.47000000	        -26.66666667	          0.00000000	        -40.00000000	         -3.33333333	          0.00000000	        -10.00000000	         30.00000000	        100.00000000	         90.00000000	
       2550.48000000	        -15.00000000	          0.00000000	        -40.00000000	         -3.33333333	          0.00000000	        -10.00000000	         30.00000000	        100.00000000	         90.00000000	
       2550.49000000	        -50.00000000	         10.00000000	        -40.00000000	         -3.33333333	          0.00000000	        -10.00000000	         30.00000000	        100.00000000	         90.00000000	
       2550.50000000	        -38.33333333	         10.00000000	        -40.00000000	         -3.33333333	          0.00000000	        -10.00000000	         30.00000000	        100.00000000	         90.00000000	
       2550.51000000	        -26.66666667	         10.00000000	        -40.00000000	         -3.33333333	          0.00000000	        -10.00000000	         30.00000000	        100.00000000	         90.00000000	
       2550.52000000	        -15.00000000	         10.00000000	        -40.00000000	         -3.33333333	          0.00000000	        -10.00000000	         30.00000000	        100.00000000	         90.00000000	
       2550.53000000	        -50.00000000	         20.00000000	        -40.00000000	         -3.33333333	          0.00000000	        -10.00000000	         30.00000000	        100.00000000	         90.00000000	
       2550.54000000	        -38.33333333	         20.00000000	        -40.00000000	         -3.33333333	          0.00000000	        -10.00000000	         30.00000000	        100.00000000	         90.00000000	
       2550.55000000	        -26.66666667	         20.00000000	        -40.00000000	         -3.33333333	          0.00000000	        -10.00000000	         30.00000000	        100.00000000	         90.00000000	
       2550.56000000	        -15.00000000	         20.00000000	        -40.00000000	         -3.33333333	          0.00000000	        -10.00000000	         30.00000000	        100.00000000	         90.00000000	
